<mxfile host="Electron" agent="Mozilla/5.0 (Windows NT 10.0; Win64; x64) AppleWebKit/537.36 (KHTML, like Gecko) draw.io/26.0.4 Chrome/128.0.6613.186 Electron/32.2.5 Safari/537.36" version="26.0.4">
  <diagram name="Stránka-1" id="Jhz8Mbd2S291VdgXQuCG">
    <mxGraphModel dx="2166" dy="1171" grid="1" gridSize="10" guides="1" tooltips="1" connect="1" arrows="1" fold="1" page="1" pageScale="1" pageWidth="827" pageHeight="1169" math="0" shadow="0">
      <root>
        <mxCell id="0" />
        <mxCell id="1" parent="0" />
        <mxCell id="MKuazU5fjomrO4yr1jYP-1" value="Diagram komponent" style="shape=umlFrame;whiteSpace=wrap;html=1;pointerEvents=0;width=140;height=30;gradientColor=none;swimlaneFillColor=default;" parent="1" vertex="1">
          <mxGeometry width="1320" height="870" as="geometry" />
        </mxCell>
        <mxCell id="8knX_Ke3Kl7nqT4cPYeJ-156" value="&lt;b&gt;Telefon&lt;/b&gt;" style="verticalAlign=top;align=center;spacingTop=8;spacingLeft=2;spacingRight=12;shape=cube;size=10;direction=south;fontStyle=4;html=1;whiteSpace=wrap;fillColor=#d5e8d4;strokeColor=#82b366;" parent="1" vertex="1">
          <mxGeometry x="10" y="440.8" width="210" height="140" as="geometry" />
        </mxCell>
        <mxCell id="8knX_Ke3Kl7nqT4cPYeJ-152" value="&lt;b&gt;Počítač&lt;/b&gt;" style="verticalAlign=top;align=center;spacingTop=8;spacingLeft=2;spacingRight=12;shape=cube;size=10;direction=south;fontStyle=4;html=1;whiteSpace=wrap;fillColor=#d5e8d4;strokeColor=#82b366;" parent="1" vertex="1">
          <mxGeometry x="10" y="270" width="210" height="140" as="geometry" />
        </mxCell>
        <mxCell id="MKuazU5fjomrO4yr1jYP-19" value="&lt;b&gt;Amazon Web Services&lt;/b&gt;" style="verticalAlign=top;align=center;spacingTop=8;spacingLeft=2;spacingRight=12;shape=cube;size=10;direction=south;fontStyle=4;html=1;whiteSpace=wrap;fillColor=#fff2cc;strokeColor=#d6b656;" parent="1" vertex="1">
          <mxGeometry x="305" y="10" width="1000" height="850" as="geometry" />
        </mxCell>
        <mxCell id="8knX_Ke3Kl7nqT4cPYeJ-138" style="edgeStyle=none;shape=connector;rounded=0;orthogonalLoop=1;jettySize=auto;html=1;entryX=0;entryY=0.5;entryDx=0;entryDy=0;strokeColor=default;align=center;verticalAlign=middle;fontFamily=Helvetica;fontSize=11;fontColor=default;labelBackgroundColor=default;endArrow=none;endFill=0;" parent="1" source="MKuazU5fjomrO4yr1jYP-2" target="8knX_Ke3Kl7nqT4cPYeJ-135" edge="1">
          <mxGeometry relative="1" as="geometry" />
        </mxCell>
        <mxCell id="MKuazU5fjomrO4yr1jYP-2" value="«Uživatelská aplikace»&lt;br&gt;&lt;b&gt;Webová aplikace&lt;/b&gt;" style="html=1;dropTarget=0;whiteSpace=wrap;" parent="1" vertex="1">
          <mxGeometry x="20" y="307.5" width="180" height="90" as="geometry" />
        </mxCell>
        <mxCell id="MKuazU5fjomrO4yr1jYP-3" value="" style="shape=module;jettyWidth=8;jettyHeight=4;" parent="MKuazU5fjomrO4yr1jYP-2" vertex="1">
          <mxGeometry x="1" width="20" height="20" relative="1" as="geometry">
            <mxPoint x="-27" y="7" as="offset" />
          </mxGeometry>
        </mxCell>
        <mxCell id="8knX_Ke3Kl7nqT4cPYeJ-66" value="«Služba»&lt;br&gt;&lt;b&gt;API Gateway&lt;/b&gt;" style="html=1;dropTarget=0;whiteSpace=wrap;verticalAlign=middle;" parent="1" vertex="1">
          <mxGeometry x="325" y="270" width="180" height="280" as="geometry" />
        </mxCell>
        <mxCell id="8knX_Ke3Kl7nqT4cPYeJ-67" value="" style="shape=module;jettyWidth=8;jettyHeight=4;" parent="8knX_Ke3Kl7nqT4cPYeJ-66" vertex="1">
          <mxGeometry x="1" width="20" height="20" relative="1" as="geometry">
            <mxPoint x="-27" y="7" as="offset" />
          </mxGeometry>
        </mxCell>
        <mxCell id="8knX_Ke3Kl7nqT4cPYeJ-76" value="" style="rounded=0;whiteSpace=wrap;html=1;" parent="1" vertex="1">
          <mxGeometry x="497" y="325" width="15" height="15" as="geometry" />
        </mxCell>
        <mxCell id="8knX_Ke3Kl7nqT4cPYeJ-77" value="" style="rounded=0;whiteSpace=wrap;html=1;" parent="1" vertex="1">
          <mxGeometry x="497" y="350" width="15" height="15" as="geometry" />
        </mxCell>
        <mxCell id="8knX_Ke3Kl7nqT4cPYeJ-81" value="" style="rounded=0;whiteSpace=wrap;html=1;" parent="1" vertex="1">
          <mxGeometry x="497" y="375" width="15" height="15" as="geometry" />
        </mxCell>
        <mxCell id="8knX_Ke3Kl7nqT4cPYeJ-83" value="" style="rounded=0;whiteSpace=wrap;html=1;" parent="1" vertex="1">
          <mxGeometry x="497" y="400" width="15" height="15" as="geometry" />
        </mxCell>
        <mxCell id="8knX_Ke3Kl7nqT4cPYeJ-84" value="" style="rounded=0;whiteSpace=wrap;html=1;" parent="1" vertex="1">
          <mxGeometry x="497" y="425" width="15" height="15" as="geometry" />
        </mxCell>
        <mxCell id="8knX_Ke3Kl7nqT4cPYeJ-121" value="" style="rounded=0;whiteSpace=wrap;html=1;" parent="1" vertex="1">
          <mxGeometry x="497" y="448.3" width="15" height="15" as="geometry" />
        </mxCell>
        <mxCell id="8knX_Ke3Kl7nqT4cPYeJ-124" value="" style="rounded=0;whiteSpace=wrap;html=1;" parent="1" vertex="1">
          <mxGeometry x="497" y="473.29999999999995" width="15" height="15" as="geometry" />
        </mxCell>
        <mxCell id="8knX_Ke3Kl7nqT4cPYeJ-125" value="" style="rounded=0;whiteSpace=wrap;html=1;" parent="1" vertex="1">
          <mxGeometry x="497" y="498.29999999999995" width="15" height="15" as="geometry" />
        </mxCell>
        <mxCell id="8knX_Ke3Kl7nqT4cPYeJ-130" value="Amazon API Gateway" style="shape=image;verticalLabelPosition=middle;labelBackgroundColor=default;verticalAlign=middle;aspect=fixed;imageAspect=0;image=https://www.cdnlogo.com/logos/a/40/aws-api-gateway.svg;spacing=9;labelPosition=right;align=left;" parent="1" vertex="1">
          <mxGeometry x="343" y="432" width="20.64" height="25" as="geometry" />
        </mxCell>
        <mxCell id="8knX_Ke3Kl7nqT4cPYeJ-139" style="edgeStyle=none;shape=connector;rounded=0;orthogonalLoop=1;jettySize=auto;html=1;entryX=0;entryY=0.5;entryDx=0;entryDy=0;strokeColor=default;align=center;verticalAlign=middle;fontFamily=Helvetica;fontSize=11;fontColor=default;labelBackgroundColor=default;endArrow=none;endFill=0;" parent="1" source="8knX_Ke3Kl7nqT4cPYeJ-131" target="8knX_Ke3Kl7nqT4cPYeJ-135" edge="1">
          <mxGeometry relative="1" as="geometry" />
        </mxCell>
        <mxCell id="8knX_Ke3Kl7nqT4cPYeJ-131" value="«Uživatelská aplikace»&lt;br&gt;&lt;b&gt;Mobilní aplikace&lt;/b&gt;" style="html=1;dropTarget=0;whiteSpace=wrap;" parent="1" vertex="1">
          <mxGeometry x="20" y="476.6" width="180" height="90" as="geometry" />
        </mxCell>
        <mxCell id="8knX_Ke3Kl7nqT4cPYeJ-132" value="" style="shape=module;jettyWidth=8;jettyHeight=4;" parent="8knX_Ke3Kl7nqT4cPYeJ-131" vertex="1">
          <mxGeometry x="1" width="20" height="20" relative="1" as="geometry">
            <mxPoint x="-27" y="7" as="offset" />
          </mxGeometry>
        </mxCell>
        <mxCell id="8knX_Ke3Kl7nqT4cPYeJ-134" value="" style="group" parent="1" vertex="1" connectable="0">
          <mxGeometry x="275" y="410" width="57" height="15" as="geometry" />
        </mxCell>
        <mxCell id="8knX_Ke3Kl7nqT4cPYeJ-135" value="REST API" style="ellipse;whiteSpace=wrap;html=1;aspect=fixed;labelPosition=center;verticalLabelPosition=bottom;align=center;verticalAlign=top;" parent="8knX_Ke3Kl7nqT4cPYeJ-134" vertex="1">
          <mxGeometry width="15" height="15" as="geometry" />
        </mxCell>
        <mxCell id="8knX_Ke3Kl7nqT4cPYeJ-136" value="" style="whiteSpace=wrap;html=1;aspect=fixed;" parent="8knX_Ke3Kl7nqT4cPYeJ-134" vertex="1">
          <mxGeometry x="42" width="15" height="15" as="geometry" />
        </mxCell>
        <mxCell id="8knX_Ke3Kl7nqT4cPYeJ-137" value="" style="endArrow=none;html=1;rounded=0;entryX=0;entryY=0.5;entryDx=0;entryDy=0;exitX=1;exitY=0.5;exitDx=0;exitDy=0;" parent="8knX_Ke3Kl7nqT4cPYeJ-134" source="8knX_Ke3Kl7nqT4cPYeJ-135" target="8knX_Ke3Kl7nqT4cPYeJ-136" edge="1">
          <mxGeometry width="50" height="50" relative="1" as="geometry">
            <mxPoint x="20" y="95" as="sourcePoint" />
            <mxPoint x="70" y="45" as="targetPoint" />
          </mxGeometry>
        </mxCell>
        <mxCell id="8knX_Ke3Kl7nqT4cPYeJ-52" value="«Databáze»&lt;br&gt;&lt;b&gt;Databáze&amp;nbsp;evidence&lt;br&gt;mazlíčků&lt;/b&gt;" style="html=1;dropTarget=0;whiteSpace=wrap;verticalAlign=top;strokeColor=default;align=center;fontFamily=Helvetica;fontSize=12;fontColor=default;fillColor=default;" parent="1" vertex="1">
          <mxGeometry x="1104" y="260" width="180" height="90" as="geometry" />
        </mxCell>
        <mxCell id="8knX_Ke3Kl7nqT4cPYeJ-53" value="" style="shape=module;jettyWidth=8;jettyHeight=4;strokeColor=default;align=center;verticalAlign=top;fontFamily=Helvetica;fontSize=12;fontColor=default;fillColor=default;" parent="8knX_Ke3Kl7nqT4cPYeJ-52" vertex="1">
          <mxGeometry x="1" width="20" height="20" relative="1" as="geometry">
            <mxPoint x="-27" y="7" as="offset" />
          </mxGeometry>
        </mxCell>
        <mxCell id="MKuazU5fjomrO4yr1jYP-4" value="&lt;br&gt;«Služba»&lt;br&gt;&lt;b&gt;Služba uživatelů&lt;/b&gt;" style="html=1;dropTarget=0;whiteSpace=wrap;verticalAlign=top;strokeColor=default;align=center;fontFamily=Helvetica;fontSize=12;fontColor=default;fillColor=default;" parent="1" vertex="1">
          <mxGeometry x="884" y="160" width="180" height="90" as="geometry" />
        </mxCell>
        <mxCell id="MKuazU5fjomrO4yr1jYP-5" value="" style="shape=module;jettyWidth=8;jettyHeight=4;strokeColor=default;align=center;verticalAlign=top;fontFamily=Helvetica;fontSize=12;fontColor=default;fillColor=default;" parent="MKuazU5fjomrO4yr1jYP-4" vertex="1">
          <mxGeometry x="1" width="20" height="20" relative="1" as="geometry">
            <mxPoint x="-27" y="7" as="offset" />
          </mxGeometry>
        </mxCell>
        <mxCell id="MKuazU5fjomrO4yr1jYP-6" value="«Služba»&lt;br&gt;&lt;b&gt;Služba evidence&lt;br&gt;mazlíčků&lt;/b&gt;" style="html=1;dropTarget=0;whiteSpace=wrap;strokeColor=default;align=center;verticalAlign=top;fontFamily=Helvetica;fontSize=12;fontColor=default;fillColor=default;" parent="1" vertex="1">
          <mxGeometry x="884" y="260" width="180" height="90" as="geometry" />
        </mxCell>
        <mxCell id="MKuazU5fjomrO4yr1jYP-7" value="" style="shape=module;jettyWidth=8;jettyHeight=4;strokeColor=default;align=center;verticalAlign=top;fontFamily=Helvetica;fontSize=12;fontColor=default;fillColor=default;" parent="MKuazU5fjomrO4yr1jYP-6" vertex="1">
          <mxGeometry x="1" width="20" height="20" relative="1" as="geometry">
            <mxPoint x="-27" y="7" as="offset" />
          </mxGeometry>
        </mxCell>
        <mxCell id="MKuazU5fjomrO4yr1jYP-8" value="«Služba»&lt;br&gt;&lt;b&gt;Služba komentářů&lt;/b&gt;&lt;div&gt;&lt;b&gt;a interakcí&lt;/b&gt;&lt;/div&gt;" style="html=1;dropTarget=0;whiteSpace=wrap;strokeColor=default;align=center;verticalAlign=top;fontFamily=Helvetica;fontSize=12;fontColor=default;fillColor=default;" parent="1" vertex="1">
          <mxGeometry x="884" y="360.8" width="180" height="90" as="geometry" />
        </mxCell>
        <mxCell id="MKuazU5fjomrO4yr1jYP-9" value="" style="shape=module;jettyWidth=8;jettyHeight=4;strokeColor=default;align=center;verticalAlign=top;fontFamily=Helvetica;fontSize=12;fontColor=default;fillColor=default;" parent="MKuazU5fjomrO4yr1jYP-8" vertex="1">
          <mxGeometry x="1" width="20" height="20" relative="1" as="geometry">
            <mxPoint x="-27" y="7" as="offset" />
          </mxGeometry>
        </mxCell>
        <mxCell id="MKuazU5fjomrO4yr1jYP-10" value="&lt;br&gt;«Služba»&lt;br&gt;&lt;b&gt;Služba odměn&lt;/b&gt;" style="html=1;dropTarget=0;whiteSpace=wrap;strokeColor=default;align=center;verticalAlign=top;fontFamily=Helvetica;fontSize=12;fontColor=default;fillColor=default;" parent="1" vertex="1">
          <mxGeometry x="884" y="462.5" width="180" height="90" as="geometry" />
        </mxCell>
        <mxCell id="MKuazU5fjomrO4yr1jYP-11" value="" style="shape=module;jettyWidth=8;jettyHeight=4;strokeColor=default;align=center;verticalAlign=top;fontFamily=Helvetica;fontSize=12;fontColor=default;fillColor=default;" parent="MKuazU5fjomrO4yr1jYP-10" vertex="1">
          <mxGeometry x="1" width="20" height="20" relative="1" as="geometry">
            <mxPoint x="-27" y="7" as="offset" />
          </mxGeometry>
        </mxCell>
        <mxCell id="MKuazU5fjomrO4yr1jYP-12" value="&lt;br&gt;«Služba»&lt;br&gt;&lt;b&gt;Služba notifikací&lt;/b&gt;" style="html=1;dropTarget=0;whiteSpace=wrap;strokeColor=default;align=center;verticalAlign=top;fontFamily=Helvetica;fontSize=12;fontColor=default;fillColor=default;" parent="1" vertex="1">
          <mxGeometry x="884" y="560.8" width="180" height="90" as="geometry" />
        </mxCell>
        <mxCell id="MKuazU5fjomrO4yr1jYP-13" value="" style="shape=module;jettyWidth=8;jettyHeight=4;strokeColor=default;align=center;verticalAlign=top;fontFamily=Helvetica;fontSize=12;fontColor=default;fillColor=default;" parent="MKuazU5fjomrO4yr1jYP-12" vertex="1">
          <mxGeometry x="1" width="20" height="20" relative="1" as="geometry">
            <mxPoint x="-27" y="7" as="offset" />
          </mxGeometry>
        </mxCell>
        <mxCell id="MKuazU5fjomrO4yr1jYP-14" value="&lt;br&gt;«Služba»&lt;br&gt;&lt;b&gt;Služba medií&lt;/b&gt;" style="html=1;dropTarget=0;whiteSpace=wrap;verticalAlign=top;strokeColor=default;align=center;fontFamily=Helvetica;fontSize=12;fontColor=default;fillColor=default;" parent="1" vertex="1">
          <mxGeometry x="884" y="660" width="180" height="90" as="geometry" />
        </mxCell>
        <mxCell id="MKuazU5fjomrO4yr1jYP-15" value="" style="shape=module;jettyWidth=8;jettyHeight=4;strokeColor=default;align=center;verticalAlign=top;fontFamily=Helvetica;fontSize=12;fontColor=default;fillColor=default;" parent="MKuazU5fjomrO4yr1jYP-14" vertex="1">
          <mxGeometry x="1" width="20" height="20" relative="1" as="geometry">
            <mxPoint x="-27" y="7" as="offset" />
          </mxGeometry>
        </mxCell>
        <mxCell id="MKuazU5fjomrO4yr1jYP-16" value="&lt;br&gt;«Služba»&lt;br&gt;&lt;b&gt;Služba rozšířené reality&lt;/b&gt;" style="html=1;dropTarget=0;whiteSpace=wrap;strokeColor=default;align=center;verticalAlign=top;fontFamily=Helvetica;fontSize=12;fontColor=default;fillColor=default;" parent="1" vertex="1">
          <mxGeometry x="884" y="760" width="180" height="90" as="geometry" />
        </mxCell>
        <mxCell id="MKuazU5fjomrO4yr1jYP-17" value="" style="shape=module;jettyWidth=8;jettyHeight=4;strokeColor=default;align=center;verticalAlign=top;fontFamily=Helvetica;fontSize=12;fontColor=default;fillColor=default;" parent="MKuazU5fjomrO4yr1jYP-16" vertex="1">
          <mxGeometry x="1" width="20" height="20" relative="1" as="geometry">
            <mxPoint x="-27" y="7" as="offset" />
          </mxGeometry>
        </mxCell>
        <mxCell id="MKuazU5fjomrO4yr1jYP-20" value="&lt;br&gt;«Databáze»&lt;br&gt;&lt;b&gt;Databáze uživatelů&lt;/b&gt;" style="html=1;dropTarget=0;whiteSpace=wrap;verticalAlign=top;" parent="1" vertex="1">
          <mxGeometry x="1104" y="160" width="180" height="90" as="geometry" />
        </mxCell>
        <mxCell id="MKuazU5fjomrO4yr1jYP-21" value="" style="shape=module;jettyWidth=8;jettyHeight=4;" parent="MKuazU5fjomrO4yr1jYP-20" vertex="1">
          <mxGeometry x="1" width="20" height="20" relative="1" as="geometry">
            <mxPoint x="-27" y="7" as="offset" />
          </mxGeometry>
        </mxCell>
        <mxCell id="MKuazU5fjomrO4yr1jYP-25" value="" style="endArrow=open;endSize=12;dashed=1;html=1;rounded=0;entryX=0;entryY=0.5;entryDx=0;entryDy=0;exitX=1;exitY=0.5;exitDx=0;exitDy=0;" parent="1" source="MKuazU5fjomrO4yr1jYP-4" target="MKuazU5fjomrO4yr1jYP-20" edge="1">
          <mxGeometry width="160" relative="1" as="geometry">
            <mxPoint x="894" y="40.00000000000006" as="sourcePoint" />
            <mxPoint x="1054" y="40.00000000000006" as="targetPoint" />
          </mxGeometry>
        </mxCell>
        <mxCell id="MKuazU5fjomrO4yr1jYP-50" value="" style="group" parent="1" vertex="1" connectable="0">
          <mxGeometry x="834" y="197.5" width="57" height="15" as="geometry" />
        </mxCell>
        <mxCell id="MKuazU5fjomrO4yr1jYP-51" value="REST API" style="ellipse;whiteSpace=wrap;html=1;aspect=fixed;labelPosition=center;verticalLabelPosition=bottom;align=center;verticalAlign=top;" parent="MKuazU5fjomrO4yr1jYP-50" vertex="1">
          <mxGeometry width="15" height="15" as="geometry" />
        </mxCell>
        <mxCell id="MKuazU5fjomrO4yr1jYP-52" value="" style="whiteSpace=wrap;html=1;aspect=fixed;" parent="MKuazU5fjomrO4yr1jYP-50" vertex="1">
          <mxGeometry x="42" width="15" height="15" as="geometry" />
        </mxCell>
        <mxCell id="MKuazU5fjomrO4yr1jYP-53" value="" style="endArrow=none;html=1;rounded=0;entryX=0;entryY=0.5;entryDx=0;entryDy=0;exitX=1;exitY=0.5;exitDx=0;exitDy=0;" parent="MKuazU5fjomrO4yr1jYP-50" source="MKuazU5fjomrO4yr1jYP-51" target="MKuazU5fjomrO4yr1jYP-52" edge="1">
          <mxGeometry width="50" height="50" relative="1" as="geometry">
            <mxPoint x="20" y="95" as="sourcePoint" />
            <mxPoint x="70" y="45" as="targetPoint" />
          </mxGeometry>
        </mxCell>
        <mxCell id="8knX_Ke3Kl7nqT4cPYeJ-21" value="&lt;br&gt;«Služba»&lt;br&gt;&lt;b&gt;Služba map&lt;/b&gt;" style="html=1;dropTarget=0;whiteSpace=wrap;verticalAlign=top;strokeColor=default;align=center;fontFamily=Helvetica;fontSize=12;fontColor=default;fillColor=default;" parent="1" vertex="1">
          <mxGeometry x="884" y="60" width="180" height="90" as="geometry" />
        </mxCell>
        <mxCell id="8knX_Ke3Kl7nqT4cPYeJ-22" value="" style="shape=module;jettyWidth=8;jettyHeight=4;strokeColor=default;align=center;verticalAlign=top;fontFamily=Helvetica;fontSize=12;fontColor=default;fillColor=default;" parent="8knX_Ke3Kl7nqT4cPYeJ-21" vertex="1">
          <mxGeometry x="1" width="20" height="20" relative="1" as="geometry">
            <mxPoint x="-27" y="7" as="offset" />
          </mxGeometry>
        </mxCell>
        <mxCell id="8knX_Ke3Kl7nqT4cPYeJ-23" value="&lt;br&gt;«Databáze»&lt;br&gt;&lt;b&gt;Databáze&amp;nbsp;&lt;/b&gt;&lt;b&gt;map&lt;/b&gt;" style="html=1;dropTarget=0;whiteSpace=wrap;verticalAlign=top;" parent="1" vertex="1">
          <mxGeometry x="1104" y="60" width="180" height="90" as="geometry" />
        </mxCell>
        <mxCell id="8knX_Ke3Kl7nqT4cPYeJ-24" value="" style="shape=module;jettyWidth=8;jettyHeight=4;" parent="8knX_Ke3Kl7nqT4cPYeJ-23" vertex="1">
          <mxGeometry x="1" width="20" height="20" relative="1" as="geometry">
            <mxPoint x="-27" y="7" as="offset" />
          </mxGeometry>
        </mxCell>
        <mxCell id="8knX_Ke3Kl7nqT4cPYeJ-25" value="" style="endArrow=open;endSize=12;dashed=1;html=1;rounded=0;entryX=0;entryY=0.5;entryDx=0;entryDy=0;exitX=1;exitY=0.5;exitDx=0;exitDy=0;" parent="1" source="8knX_Ke3Kl7nqT4cPYeJ-21" target="8knX_Ke3Kl7nqT4cPYeJ-23" edge="1">
          <mxGeometry width="160" relative="1" as="geometry">
            <mxPoint x="894" y="650.8" as="sourcePoint" />
            <mxPoint x="1054" y="650.8" as="targetPoint" />
          </mxGeometry>
        </mxCell>
        <mxCell id="8knX_Ke3Kl7nqT4cPYeJ-26" value="" style="group" parent="1" vertex="1" connectable="0">
          <mxGeometry x="834" y="97.5" width="57" height="15" as="geometry" />
        </mxCell>
        <mxCell id="8knX_Ke3Kl7nqT4cPYeJ-27" value="REST API" style="ellipse;whiteSpace=wrap;html=1;aspect=fixed;labelPosition=center;verticalLabelPosition=bottom;align=center;verticalAlign=top;" parent="8knX_Ke3Kl7nqT4cPYeJ-26" vertex="1">
          <mxGeometry width="15" height="15" as="geometry" />
        </mxCell>
        <mxCell id="8knX_Ke3Kl7nqT4cPYeJ-28" value="" style="whiteSpace=wrap;html=1;aspect=fixed;" parent="8knX_Ke3Kl7nqT4cPYeJ-26" vertex="1">
          <mxGeometry x="42" width="15" height="15" as="geometry" />
        </mxCell>
        <mxCell id="8knX_Ke3Kl7nqT4cPYeJ-29" value="" style="endArrow=none;html=1;rounded=0;entryX=0;entryY=0.5;entryDx=0;entryDy=0;exitX=1;exitY=0.5;exitDx=0;exitDy=0;" parent="8knX_Ke3Kl7nqT4cPYeJ-26" source="8knX_Ke3Kl7nqT4cPYeJ-27" target="8knX_Ke3Kl7nqT4cPYeJ-28" edge="1">
          <mxGeometry width="50" height="50" relative="1" as="geometry">
            <mxPoint x="20" y="95" as="sourcePoint" />
            <mxPoint x="70" y="45" as="targetPoint" />
          </mxGeometry>
        </mxCell>
        <mxCell id="8knX_Ke3Kl7nqT4cPYeJ-51" value="PostgreSQL" style="shape=image;verticalLabelPosition=middle;labelBackgroundColor=default;verticalAlign=middle;aspect=fixed;imageAspect=0;image=https://upload.wikimedia.org/wikipedia/commons/thumb/2/29/Postgresql_elephant.svg/1200px-Postgresql_elephant.svg.png;labelPosition=right;align=left;" parent="1" vertex="1">
          <mxGeometry x="1142" y="212.5" width="25.9" height="26.7" as="geometry" />
        </mxCell>
        <mxCell id="8knX_Ke3Kl7nqT4cPYeJ-54" value="«Databáze»&lt;br&gt;&lt;b&gt;Databáze&amp;nbsp;&lt;/b&gt;&lt;span style=&quot;background-color: transparent;&quot;&gt;&lt;b&gt;komentářů&lt;/b&gt;&lt;/span&gt;&lt;div&gt;&lt;b&gt;a interakcí&lt;/b&gt;&lt;/div&gt;" style="html=1;dropTarget=0;whiteSpace=wrap;verticalAlign=top;strokeColor=default;align=center;fontFamily=Helvetica;fontSize=12;fontColor=default;fillColor=default;" parent="1" vertex="1">
          <mxGeometry x="1104" y="360.8" width="180" height="90" as="geometry" />
        </mxCell>
        <mxCell id="8knX_Ke3Kl7nqT4cPYeJ-55" value="" style="shape=module;jettyWidth=8;jettyHeight=4;strokeColor=default;align=center;verticalAlign=top;fontFamily=Helvetica;fontSize=12;fontColor=default;fillColor=default;" parent="8knX_Ke3Kl7nqT4cPYeJ-54" vertex="1">
          <mxGeometry x="1" width="20" height="20" relative="1" as="geometry">
            <mxPoint x="-27" y="7" as="offset" />
          </mxGeometry>
        </mxCell>
        <mxCell id="8knX_Ke3Kl7nqT4cPYeJ-56" value="&lt;br&gt;«Databáze»&lt;br&gt;&lt;b&gt;Databáze&amp;nbsp;&lt;/b&gt;&lt;b&gt;medií&lt;/b&gt;" style="html=1;dropTarget=0;whiteSpace=wrap;verticalAlign=top;" parent="1" vertex="1">
          <mxGeometry x="1104" y="660" width="180" height="90" as="geometry" />
        </mxCell>
        <mxCell id="8knX_Ke3Kl7nqT4cPYeJ-57" value="" style="shape=module;jettyWidth=8;jettyHeight=4;" parent="8knX_Ke3Kl7nqT4cPYeJ-56" vertex="1">
          <mxGeometry x="1" width="20" height="20" relative="1" as="geometry">
            <mxPoint x="-27" y="7" as="offset" />
          </mxGeometry>
        </mxCell>
        <mxCell id="8knX_Ke3Kl7nqT4cPYeJ-58" value="Amazon S3" style="shape=image;verticalLabelPosition=middle;labelBackgroundColor=default;verticalAlign=middle;aspect=fixed;imageAspect=0;image=https://everythingdevops.dev/content/images/2023/08/Amazon-S3-Logo.svg.png;labelPosition=right;align=left;" parent="1" vertex="1">
          <mxGeometry x="1148.0000000000005" y="715" width="25.08" height="30" as="geometry" />
        </mxCell>
        <mxCell id="8knX_Ke3Kl7nqT4cPYeJ-59" value="&lt;br&gt;«Databáze»&lt;br&gt;&lt;b&gt;Databáze&amp;nbsp;&lt;/b&gt;&lt;b&gt;notifikací&lt;/b&gt;" style="html=1;dropTarget=0;whiteSpace=wrap;verticalAlign=top;" parent="1" vertex="1">
          <mxGeometry x="1104" y="560.8" width="180" height="90" as="geometry" />
        </mxCell>
        <mxCell id="8knX_Ke3Kl7nqT4cPYeJ-60" value="" style="shape=module;jettyWidth=8;jettyHeight=4;" parent="8knX_Ke3Kl7nqT4cPYeJ-59" vertex="1">
          <mxGeometry x="1" width="20" height="20" relative="1" as="geometry">
            <mxPoint x="-27" y="7" as="offset" />
          </mxGeometry>
        </mxCell>
        <mxCell id="8knX_Ke3Kl7nqT4cPYeJ-63" value="Redis" style="shape=image;verticalLabelPosition=middle;labelBackgroundColor=default;verticalAlign=middle;aspect=fixed;imageAspect=0;image=https://static-00.iconduck.com/assets.00/redis-plain-icon-2048x1748-fmvimw1g.png;labelPosition=right;align=left;spacingRight=1;spacing=1;" parent="1" vertex="1">
          <mxGeometry x="1151.21" y="621.47" width="27.57" height="23.53" as="geometry" />
        </mxCell>
        <mxCell id="8knX_Ke3Kl7nqT4cPYeJ-91" value="" style="group" parent="1" vertex="1" connectable="0">
          <mxGeometry x="834" y="700" width="57" height="15" as="geometry" />
        </mxCell>
        <mxCell id="8knX_Ke3Kl7nqT4cPYeJ-92" value="REST API" style="ellipse;whiteSpace=wrap;html=1;aspect=fixed;labelPosition=center;verticalLabelPosition=bottom;align=center;verticalAlign=top;" parent="8knX_Ke3Kl7nqT4cPYeJ-91" vertex="1">
          <mxGeometry width="15" height="15" as="geometry" />
        </mxCell>
        <mxCell id="8knX_Ke3Kl7nqT4cPYeJ-93" value="" style="whiteSpace=wrap;html=1;aspect=fixed;" parent="8knX_Ke3Kl7nqT4cPYeJ-91" vertex="1">
          <mxGeometry x="42" width="15" height="15" as="geometry" />
        </mxCell>
        <mxCell id="8knX_Ke3Kl7nqT4cPYeJ-94" value="" style="endArrow=none;html=1;rounded=0;entryX=0;entryY=0.5;entryDx=0;entryDy=0;exitX=1;exitY=0.5;exitDx=0;exitDy=0;" parent="8knX_Ke3Kl7nqT4cPYeJ-91" source="8knX_Ke3Kl7nqT4cPYeJ-92" target="8knX_Ke3Kl7nqT4cPYeJ-93" edge="1">
          <mxGeometry width="50" height="50" relative="1" as="geometry">
            <mxPoint x="20" y="95" as="sourcePoint" />
            <mxPoint x="70" y="45" as="targetPoint" />
          </mxGeometry>
        </mxCell>
        <mxCell id="8knX_Ke3Kl7nqT4cPYeJ-95" value="" style="group" parent="1" vertex="1" connectable="0">
          <mxGeometry x="834" y="600.8" width="57" height="15" as="geometry" />
        </mxCell>
        <mxCell id="8knX_Ke3Kl7nqT4cPYeJ-96" value="REST API" style="ellipse;whiteSpace=wrap;html=1;aspect=fixed;labelPosition=center;verticalLabelPosition=bottom;align=center;verticalAlign=top;" parent="8knX_Ke3Kl7nqT4cPYeJ-95" vertex="1">
          <mxGeometry width="15" height="15" as="geometry" />
        </mxCell>
        <mxCell id="8knX_Ke3Kl7nqT4cPYeJ-97" value="" style="whiteSpace=wrap;html=1;aspect=fixed;" parent="8knX_Ke3Kl7nqT4cPYeJ-95" vertex="1">
          <mxGeometry x="42" width="15" height="15" as="geometry" />
        </mxCell>
        <mxCell id="8knX_Ke3Kl7nqT4cPYeJ-98" value="" style="endArrow=none;html=1;rounded=0;entryX=0;entryY=0.5;entryDx=0;entryDy=0;exitX=1;exitY=0.5;exitDx=0;exitDy=0;" parent="8knX_Ke3Kl7nqT4cPYeJ-95" source="8knX_Ke3Kl7nqT4cPYeJ-96" target="8knX_Ke3Kl7nqT4cPYeJ-97" edge="1">
          <mxGeometry width="50" height="50" relative="1" as="geometry">
            <mxPoint x="20" y="95" as="sourcePoint" />
            <mxPoint x="70" y="45" as="targetPoint" />
          </mxGeometry>
        </mxCell>
        <mxCell id="8knX_Ke3Kl7nqT4cPYeJ-99" value="" style="group" parent="1" vertex="1" connectable="0">
          <mxGeometry x="834" y="800" width="57" height="15" as="geometry" />
        </mxCell>
        <mxCell id="8knX_Ke3Kl7nqT4cPYeJ-100" value="REST API" style="ellipse;whiteSpace=wrap;html=1;aspect=fixed;labelPosition=center;verticalLabelPosition=bottom;align=center;verticalAlign=top;" parent="8knX_Ke3Kl7nqT4cPYeJ-99" vertex="1">
          <mxGeometry width="15" height="15" as="geometry" />
        </mxCell>
        <mxCell id="8knX_Ke3Kl7nqT4cPYeJ-101" value="" style="whiteSpace=wrap;html=1;aspect=fixed;" parent="8knX_Ke3Kl7nqT4cPYeJ-99" vertex="1">
          <mxGeometry x="42" width="15" height="15" as="geometry" />
        </mxCell>
        <mxCell id="8knX_Ke3Kl7nqT4cPYeJ-102" value="" style="endArrow=none;html=1;rounded=0;entryX=0;entryY=0.5;entryDx=0;entryDy=0;exitX=1;exitY=0.5;exitDx=0;exitDy=0;" parent="8knX_Ke3Kl7nqT4cPYeJ-99" source="8knX_Ke3Kl7nqT4cPYeJ-100" target="8knX_Ke3Kl7nqT4cPYeJ-101" edge="1">
          <mxGeometry width="50" height="50" relative="1" as="geometry">
            <mxPoint x="20" y="95" as="sourcePoint" />
            <mxPoint x="70" y="45" as="targetPoint" />
          </mxGeometry>
        </mxCell>
        <mxCell id="8knX_Ke3Kl7nqT4cPYeJ-103" value="" style="group" parent="1" vertex="1" connectable="0">
          <mxGeometry x="834" y="502.5" width="57" height="15" as="geometry" />
        </mxCell>
        <mxCell id="8knX_Ke3Kl7nqT4cPYeJ-104" value="REST API" style="ellipse;whiteSpace=wrap;html=1;aspect=fixed;labelPosition=center;verticalLabelPosition=bottom;align=center;verticalAlign=top;" parent="8knX_Ke3Kl7nqT4cPYeJ-103" vertex="1">
          <mxGeometry width="15" height="15" as="geometry" />
        </mxCell>
        <mxCell id="8knX_Ke3Kl7nqT4cPYeJ-105" value="" style="whiteSpace=wrap;html=1;aspect=fixed;" parent="8knX_Ke3Kl7nqT4cPYeJ-103" vertex="1">
          <mxGeometry x="42" width="15" height="15" as="geometry" />
        </mxCell>
        <mxCell id="8knX_Ke3Kl7nqT4cPYeJ-106" value="" style="endArrow=none;html=1;rounded=0;entryX=0;entryY=0.5;entryDx=0;entryDy=0;exitX=1;exitY=0.5;exitDx=0;exitDy=0;" parent="8knX_Ke3Kl7nqT4cPYeJ-103" source="8knX_Ke3Kl7nqT4cPYeJ-104" target="8knX_Ke3Kl7nqT4cPYeJ-105" edge="1">
          <mxGeometry width="50" height="50" relative="1" as="geometry">
            <mxPoint x="20" y="95" as="sourcePoint" />
            <mxPoint x="70" y="45" as="targetPoint" />
          </mxGeometry>
        </mxCell>
        <mxCell id="8knX_Ke3Kl7nqT4cPYeJ-107" value="" style="group" parent="1" vertex="1" connectable="0">
          <mxGeometry x="834" y="300" width="57" height="15" as="geometry" />
        </mxCell>
        <mxCell id="8knX_Ke3Kl7nqT4cPYeJ-108" value="REST API" style="ellipse;whiteSpace=wrap;html=1;aspect=fixed;labelPosition=center;verticalLabelPosition=bottom;align=center;verticalAlign=top;" parent="8knX_Ke3Kl7nqT4cPYeJ-107" vertex="1">
          <mxGeometry width="15" height="15" as="geometry" />
        </mxCell>
        <mxCell id="8knX_Ke3Kl7nqT4cPYeJ-109" value="" style="whiteSpace=wrap;html=1;aspect=fixed;" parent="8knX_Ke3Kl7nqT4cPYeJ-107" vertex="1">
          <mxGeometry x="42" width="15" height="15" as="geometry" />
        </mxCell>
        <mxCell id="8knX_Ke3Kl7nqT4cPYeJ-110" value="" style="endArrow=none;html=1;rounded=0;entryX=0;entryY=0.5;entryDx=0;entryDy=0;exitX=1;exitY=0.5;exitDx=0;exitDy=0;" parent="8knX_Ke3Kl7nqT4cPYeJ-107" source="8knX_Ke3Kl7nqT4cPYeJ-108" target="8knX_Ke3Kl7nqT4cPYeJ-109" edge="1">
          <mxGeometry width="50" height="50" relative="1" as="geometry">
            <mxPoint x="20" y="95" as="sourcePoint" />
            <mxPoint x="70" y="45" as="targetPoint" />
          </mxGeometry>
        </mxCell>
        <mxCell id="8knX_Ke3Kl7nqT4cPYeJ-128" style="edgeStyle=none;shape=connector;rounded=0;orthogonalLoop=1;jettySize=auto;html=1;strokeColor=default;align=center;verticalAlign=middle;fontFamily=Helvetica;fontSize=11;fontColor=default;labelBackgroundColor=default;endArrow=none;endFill=0;" parent="1" source="8knX_Ke3Kl7nqT4cPYeJ-76" target="8knX_Ke3Kl7nqT4cPYeJ-27" edge="1">
          <mxGeometry relative="1" as="geometry">
            <mxPoint x="714" y="-50" as="sourcePoint" />
          </mxGeometry>
        </mxCell>
        <mxCell id="8knX_Ke3Kl7nqT4cPYeJ-140" value="" style="endArrow=open;endSize=12;dashed=1;html=1;rounded=0;entryX=0;entryY=0.5;entryDx=0;entryDy=0;exitX=1;exitY=0.5;exitDx=0;exitDy=0;" parent="1" source="MKuazU5fjomrO4yr1jYP-14" target="8knX_Ke3Kl7nqT4cPYeJ-56" edge="1">
          <mxGeometry width="160" relative="1" as="geometry">
            <mxPoint x="1074" y="595" as="sourcePoint" />
            <mxPoint x="1114" y="595" as="targetPoint" />
          </mxGeometry>
        </mxCell>
        <mxCell id="8knX_Ke3Kl7nqT4cPYeJ-141" value="" style="endArrow=open;endSize=12;dashed=1;html=1;rounded=0;entryX=0;entryY=0.5;entryDx=0;entryDy=0;exitX=1;exitY=0.5;exitDx=0;exitDy=0;" parent="1" source="MKuazU5fjomrO4yr1jYP-6" target="8knX_Ke3Kl7nqT4cPYeJ-52" edge="1">
          <mxGeometry width="160" relative="1" as="geometry">
            <mxPoint x="1084" y="435" as="sourcePoint" />
            <mxPoint x="1124" y="435" as="targetPoint" />
          </mxGeometry>
        </mxCell>
        <mxCell id="8knX_Ke3Kl7nqT4cPYeJ-142" value="" style="endArrow=open;endSize=12;dashed=1;html=1;rounded=0;entryX=0;entryY=0.5;entryDx=0;entryDy=0;exitX=1;exitY=0.5;exitDx=0;exitDy=0;" parent="1" source="MKuazU5fjomrO4yr1jYP-8" target="8knX_Ke3Kl7nqT4cPYeJ-54" edge="1">
          <mxGeometry width="160" relative="1" as="geometry">
            <mxPoint x="1094" y="655.8" as="sourcePoint" />
            <mxPoint x="1134" y="655.8" as="targetPoint" />
          </mxGeometry>
        </mxCell>
        <mxCell id="8knX_Ke3Kl7nqT4cPYeJ-143" value="" style="endArrow=open;endSize=12;dashed=1;html=1;rounded=0;entryX=0;entryY=0.5;entryDx=0;entryDy=0;exitX=1;exitY=0.5;exitDx=0;exitDy=0;" parent="1" source="MKuazU5fjomrO4yr1jYP-12" target="8knX_Ke3Kl7nqT4cPYeJ-59" edge="1">
          <mxGeometry width="160" relative="1" as="geometry">
            <mxPoint x="1104" y="425.8" as="sourcePoint" />
            <mxPoint x="1144" y="425.8" as="targetPoint" />
          </mxGeometry>
        </mxCell>
        <mxCell id="8knX_Ke3Kl7nqT4cPYeJ-145" value="&lt;br&gt;«Databáze»&lt;br&gt;&lt;b&gt;Databáze&amp;nbsp;&lt;/b&gt;&lt;b&gt;rozšířené reality&lt;/b&gt;" style="html=1;dropTarget=0;whiteSpace=wrap;verticalAlign=top;" parent="1" vertex="1">
          <mxGeometry x="1104" y="760" width="180" height="90" as="geometry" />
        </mxCell>
        <mxCell id="8knX_Ke3Kl7nqT4cPYeJ-146" value="" style="shape=module;jettyWidth=8;jettyHeight=4;" parent="8knX_Ke3Kl7nqT4cPYeJ-145" vertex="1">
          <mxGeometry x="1" width="20" height="20" relative="1" as="geometry">
            <mxPoint x="-27" y="7" as="offset" />
          </mxGeometry>
        </mxCell>
        <mxCell id="8knX_Ke3Kl7nqT4cPYeJ-147" value="&lt;br&gt;«Databáze»&lt;br&gt;&lt;b&gt;Databáze&amp;nbsp;&lt;/b&gt;&lt;b&gt;odměn&lt;/b&gt;" style="html=1;dropTarget=0;whiteSpace=wrap;verticalAlign=top;strokeColor=default;align=center;fontFamily=Helvetica;fontSize=12;fontColor=default;fillColor=default;" parent="1" vertex="1">
          <mxGeometry x="1104" y="462.5" width="180" height="90" as="geometry" />
        </mxCell>
        <mxCell id="8knX_Ke3Kl7nqT4cPYeJ-148" value="" style="shape=module;jettyWidth=8;jettyHeight=4;strokeColor=default;align=center;verticalAlign=top;fontFamily=Helvetica;fontSize=12;fontColor=default;fillColor=default;" parent="8knX_Ke3Kl7nqT4cPYeJ-147" vertex="1">
          <mxGeometry x="1" width="20" height="20" relative="1" as="geometry">
            <mxPoint x="-27" y="7" as="offset" />
          </mxGeometry>
        </mxCell>
        <mxCell id="8knX_Ke3Kl7nqT4cPYeJ-149" value="" style="endArrow=open;endSize=12;dashed=1;html=1;rounded=0;entryX=0;entryY=0.5;entryDx=0;entryDy=0;exitX=1;exitY=0.5;exitDx=0;exitDy=0;" parent="1" source="MKuazU5fjomrO4yr1jYP-10" target="8knX_Ke3Kl7nqT4cPYeJ-147" edge="1">
          <mxGeometry width="160" relative="1" as="geometry">
            <mxPoint x="1074" y="627.5" as="sourcePoint" />
            <mxPoint x="1114" y="627.5" as="targetPoint" />
          </mxGeometry>
        </mxCell>
        <mxCell id="8knX_Ke3Kl7nqT4cPYeJ-150" value="" style="endArrow=open;endSize=12;dashed=1;html=1;rounded=0;entryX=0;entryY=0.5;entryDx=0;entryDy=0;exitX=1;exitY=0.5;exitDx=0;exitDy=0;" parent="1" source="MKuazU5fjomrO4yr1jYP-16" target="8knX_Ke3Kl7nqT4cPYeJ-145" edge="1">
          <mxGeometry width="160" relative="1" as="geometry">
            <mxPoint x="1084" y="1035" as="sourcePoint" />
            <mxPoint x="1124" y="1035" as="targetPoint" />
          </mxGeometry>
        </mxCell>
        <mxCell id="_08A7IX_DOowj9vg7Gip-1" value="PostgreSQL + PostGIS" style="shape=image;verticalLabelPosition=middle;labelBackgroundColor=default;verticalAlign=middle;aspect=fixed;imageAspect=0;image=https://upload.wikimedia.org/wikipedia/commons/thumb/2/29/Postgresql_elephant.svg/1200px-Postgresql_elephant.svg.png;labelPosition=right;align=left;" vertex="1" parent="1">
          <mxGeometry x="1116" y="116" width="25.9" height="26.7" as="geometry" />
        </mxCell>
        <mxCell id="_08A7IX_DOowj9vg7Gip-2" value="PostgreSQL + PostGIS" style="shape=image;verticalLabelPosition=middle;labelBackgroundColor=default;verticalAlign=middle;aspect=fixed;imageAspect=0;image=https://upload.wikimedia.org/wikipedia/commons/thumb/2/29/Postgresql_elephant.svg/1200px-Postgresql_elephant.svg.png;labelPosition=right;align=left;" vertex="1" parent="1">
          <mxGeometry x="1114" y="315" width="25.9" height="26.7" as="geometry" />
        </mxCell>
        <mxCell id="_08A7IX_DOowj9vg7Gip-3" value="mongoDB" style="shape=image;verticalLabelPosition=middle;labelBackgroundColor=default;verticalAlign=middle;aspect=fixed;imageAspect=0;image=https://cdn.worldvectorlogo.com/logos/mongodb-icon-1.svg;strokeColor=default;align=left;fontFamily=Helvetica;fontSize=12;fontColor=default;fillColor=default;labelPosition=right;spacing=-10;" vertex="1" parent="1">
          <mxGeometry x="1150" y="414" width="30" height="30" as="geometry" />
        </mxCell>
        <mxCell id="_08A7IX_DOowj9vg7Gip-4" value="PostgreSQL" style="shape=image;verticalLabelPosition=middle;labelBackgroundColor=default;verticalAlign=middle;aspect=fixed;imageAspect=0;image=https://upload.wikimedia.org/wikipedia/commons/thumb/2/29/Postgresql_elephant.svg/1200px-Postgresql_elephant.svg.png;labelPosition=right;align=left;" vertex="1" parent="1">
          <mxGeometry x="1142" y="519.15" width="25.9" height="26.7" as="geometry" />
        </mxCell>
        <mxCell id="_08A7IX_DOowj9vg7Gip-6" value="AR DB" style="text;html=1;align=center;verticalAlign=middle;whiteSpace=wrap;rounded=0;" vertex="1" parent="1">
          <mxGeometry x="1164" y="815" width="60" height="30" as="geometry" />
        </mxCell>
        <mxCell id="8knX_Ke3Kl7nqT4cPYeJ-111" value="" style="group" parent="1" vertex="1" connectable="0">
          <mxGeometry x="625" y="398.3" width="57" height="15" as="geometry" />
        </mxCell>
        <mxCell id="8knX_Ke3Kl7nqT4cPYeJ-112" value="REST API" style="ellipse;whiteSpace=wrap;html=1;aspect=fixed;labelPosition=center;verticalLabelPosition=bottom;align=center;verticalAlign=top;" parent="8knX_Ke3Kl7nqT4cPYeJ-111" vertex="1">
          <mxGeometry width="15" height="15" as="geometry" />
        </mxCell>
        <mxCell id="8knX_Ke3Kl7nqT4cPYeJ-113" value="" style="whiteSpace=wrap;html=1;aspect=fixed;" parent="8knX_Ke3Kl7nqT4cPYeJ-111" vertex="1">
          <mxGeometry x="42" width="15" height="15" as="geometry" />
        </mxCell>
        <mxCell id="8knX_Ke3Kl7nqT4cPYeJ-114" value="" style="endArrow=none;html=1;rounded=0;entryX=0;entryY=0.5;entryDx=0;entryDy=0;exitX=1;exitY=0.5;exitDx=0;exitDy=0;" parent="8knX_Ke3Kl7nqT4cPYeJ-111" source="8knX_Ke3Kl7nqT4cPYeJ-112" target="8knX_Ke3Kl7nqT4cPYeJ-113" edge="1">
          <mxGeometry width="50" height="50" relative="1" as="geometry">
            <mxPoint x="20" y="95" as="sourcePoint" />
            <mxPoint x="70" y="45" as="targetPoint" />
          </mxGeometry>
        </mxCell>
        <mxCell id="_08A7IX_DOowj9vg7Gip-11" value="" style="endArrow=open;endSize=12;dashed=1;html=1;rounded=0;entryX=0;entryY=0.5;entryDx=0;entryDy=0;" edge="1" parent="1" source="_08A7IX_DOowj9vg7Gip-7" target="MKuazU5fjomrO4yr1jYP-8">
          <mxGeometry width="160" relative="1" as="geometry">
            <mxPoint x="1074" y="416" as="sourcePoint" />
            <mxPoint x="1114" y="416" as="targetPoint" />
            <Array as="points" />
          </mxGeometry>
        </mxCell>
        <mxCell id="_08A7IX_DOowj9vg7Gip-13" style="edgeStyle=none;shape=connector;rounded=0;orthogonalLoop=1;jettySize=auto;html=1;strokeColor=default;align=center;verticalAlign=middle;fontFamily=Helvetica;fontSize=11;fontColor=default;labelBackgroundColor=default;endArrow=none;endFill=0;entryX=0.241;entryY=0.623;entryDx=0;entryDy=0;entryPerimeter=0;" edge="1" parent="1" source="8knX_Ke3Kl7nqT4cPYeJ-77" target="MKuazU5fjomrO4yr1jYP-51">
          <mxGeometry relative="1" as="geometry">
            <mxPoint x="521" y="335" as="sourcePoint" />
            <mxPoint x="767" y="61" as="targetPoint" />
          </mxGeometry>
        </mxCell>
        <mxCell id="_08A7IX_DOowj9vg7Gip-14" style="edgeStyle=none;shape=connector;rounded=0;orthogonalLoop=1;jettySize=auto;html=1;strokeColor=default;align=center;verticalAlign=middle;fontFamily=Helvetica;fontSize=11;fontColor=default;labelBackgroundColor=default;endArrow=none;endFill=0;" edge="1" parent="1" source="8knX_Ke3Kl7nqT4cPYeJ-81" target="8knX_Ke3Kl7nqT4cPYeJ-108">
          <mxGeometry relative="1" as="geometry">
            <mxPoint x="531" y="345" as="sourcePoint" />
            <mxPoint x="777" y="71" as="targetPoint" />
          </mxGeometry>
        </mxCell>
        <mxCell id="_08A7IX_DOowj9vg7Gip-15" style="edgeStyle=none;shape=connector;rounded=0;orthogonalLoop=1;jettySize=auto;html=1;strokeColor=default;align=center;verticalAlign=middle;fontFamily=Helvetica;fontSize=11;fontColor=default;labelBackgroundColor=default;endArrow=none;endFill=0;" edge="1" parent="1" source="8knX_Ke3Kl7nqT4cPYeJ-83" target="8knX_Ke3Kl7nqT4cPYeJ-112">
          <mxGeometry relative="1" as="geometry">
            <mxPoint x="541" y="355" as="sourcePoint" />
            <mxPoint x="787" y="81" as="targetPoint" />
          </mxGeometry>
        </mxCell>
        <mxCell id="_08A7IX_DOowj9vg7Gip-7" value="&lt;br&gt;«Služba»&lt;br&gt;&lt;b&gt;Message broker&lt;/b&gt;" style="html=1;dropTarget=0;whiteSpace=wrap;strokeColor=default;align=center;verticalAlign=top;fontFamily=Helvetica;fontSize=12;fontColor=default;fillColor=default;" vertex="1" parent="1">
          <mxGeometry x="674" y="360.8" width="180" height="90" as="geometry" />
        </mxCell>
        <mxCell id="_08A7IX_DOowj9vg7Gip-8" value="" style="shape=module;jettyWidth=8;jettyHeight=4;strokeColor=default;align=center;verticalAlign=top;fontFamily=Helvetica;fontSize=12;fontColor=default;fillColor=default;" vertex="1" parent="_08A7IX_DOowj9vg7Gip-7">
          <mxGeometry x="1" width="20" height="20" relative="1" as="geometry">
            <mxPoint x="-27" y="7" as="offset" />
          </mxGeometry>
        </mxCell>
        <mxCell id="_08A7IX_DOowj9vg7Gip-12" value="Apache Kafka" style="shape=image;verticalLabelPosition=middle;labelBackgroundColor=default;verticalAlign=middle;aspect=fixed;imageAspect=0;image=https://upload.wikimedia.org/wikipedia/commons/0/01/Apache_Kafka_logo.svg;labelPosition=right;align=left;" vertex="1" parent="1">
          <mxGeometry x="714" y="417.35" width="14.35" height="23.3" as="geometry" />
        </mxCell>
        <mxCell id="_08A7IX_DOowj9vg7Gip-16" style="edgeStyle=none;shape=connector;rounded=0;orthogonalLoop=1;jettySize=auto;html=1;strokeColor=default;align=center;verticalAlign=middle;fontFamily=Helvetica;fontSize=11;fontColor=default;labelBackgroundColor=default;endArrow=none;endFill=0;" edge="1" parent="1" source="8knX_Ke3Kl7nqT4cPYeJ-84" target="8knX_Ke3Kl7nqT4cPYeJ-104">
          <mxGeometry relative="1" as="geometry">
            <mxPoint x="551" y="365" as="sourcePoint" />
            <mxPoint x="797" y="91" as="targetPoint" />
          </mxGeometry>
        </mxCell>
        <mxCell id="_08A7IX_DOowj9vg7Gip-17" style="edgeStyle=none;shape=connector;rounded=0;orthogonalLoop=1;jettySize=auto;html=1;strokeColor=default;align=center;verticalAlign=middle;fontFamily=Helvetica;fontSize=11;fontColor=default;labelBackgroundColor=default;endArrow=none;endFill=0;" edge="1" parent="1" source="8knX_Ke3Kl7nqT4cPYeJ-121" target="8knX_Ke3Kl7nqT4cPYeJ-96">
          <mxGeometry relative="1" as="geometry">
            <mxPoint x="522" y="443" as="sourcePoint" />
            <mxPoint x="844" y="460" as="targetPoint" />
          </mxGeometry>
        </mxCell>
        <mxCell id="_08A7IX_DOowj9vg7Gip-18" style="edgeStyle=none;shape=connector;rounded=0;orthogonalLoop=1;jettySize=auto;html=1;strokeColor=default;align=center;verticalAlign=middle;fontFamily=Helvetica;fontSize=11;fontColor=default;labelBackgroundColor=default;endArrow=none;endFill=0;" edge="1" parent="1" source="8knX_Ke3Kl7nqT4cPYeJ-125" target="8knX_Ke3Kl7nqT4cPYeJ-100">
          <mxGeometry relative="1" as="geometry">
            <mxPoint x="497" y="705" as="sourcePoint" />
            <mxPoint x="819" y="722" as="targetPoint" />
          </mxGeometry>
        </mxCell>
        <mxCell id="_08A7IX_DOowj9vg7Gip-19" style="edgeStyle=none;shape=connector;rounded=0;orthogonalLoop=1;jettySize=auto;html=1;strokeColor=default;align=center;verticalAlign=middle;fontFamily=Helvetica;fontSize=11;fontColor=default;labelBackgroundColor=default;endArrow=none;endFill=0;" edge="1" parent="1" source="8knX_Ke3Kl7nqT4cPYeJ-124" target="8knX_Ke3Kl7nqT4cPYeJ-92">
          <mxGeometry relative="1" as="geometry">
            <mxPoint x="542" y="463" as="sourcePoint" />
            <mxPoint x="864" y="480" as="targetPoint" />
          </mxGeometry>
        </mxCell>
      </root>
    </mxGraphModel>
  </diagram>
</mxfile>
